<svg width="87" height="15" viewBox="0 0 87 15" fill="none" xmlns="http://www.w3.org/2000/svg">
<rect width="87" height="15" fill="#E5E5E5"/>
<g id="product detail" clip-path="url(#clip0_0_1)">
<rect width="414" height="896" transform="translate(-38 -571)" fill="white"/>
<path id="background" d="M-38 -103C-38 -108.523 -33.5228 -113 -28 -113H366C371.523 -113 376 -108.523 376 -103V325H-38V-103Z" fill="#F4F5F9"/>
<g id="body">
<g id="Group 215">
<g id="ratingsReviews">
<g id="Group 101">
<path id="Vector" d="M68.9609 5.60639C68.8627 5.30266 68.5933 5.08693 68.2746 5.05821L63.9452 4.66509L62.2332 0.658071C62.107 0.364408 61.8195 0.174316 61.5001 0.174316C61.1807 0.174316 60.8932 0.364408 60.7669 0.658757L59.055 4.66509L54.7249 5.05821C54.4067 5.08762 54.138 5.30266 54.0393 5.60639C53.9405 5.91013 54.0317 6.24327 54.2724 6.45328L57.5449 9.3233L56.5799 13.5741C56.5093 13.8866 56.6306 14.2097 56.8899 14.3972C57.0293 14.4979 57.1924 14.5492 57.3569 14.5492C57.4987 14.5492 57.6393 14.5109 57.7655 14.4354L61.5001 12.2034L65.2332 14.4354C65.5064 14.5997 65.8508 14.5847 66.1095 14.3972C66.369 14.2091 66.4902 13.8859 66.4196 13.5741L65.4546 9.3233L68.7271 6.45385C68.9678 6.24327 69.0597 5.9107 68.9609 5.60639Z" fill="#FFC107"/>
<path id="Vector_2" d="M50.9609 5.60639C50.8627 5.30266 50.5933 5.08693 50.2746 5.05821L45.9452 4.66509L44.2332 0.658071C44.107 0.364408 43.8195 0.174316 43.5001 0.174316C43.1807 0.174316 42.8932 0.364408 42.7669 0.658757L41.055 4.66509L36.7249 5.05821C36.4067 5.08762 36.138 5.30266 36.0393 5.60639C35.9405 5.91013 36.0317 6.24327 36.2724 6.45328L39.5449 9.3233L38.5799 13.5741C38.5093 13.8866 38.6306 14.2097 38.8899 14.3972C39.0293 14.4979 39.1924 14.5492 39.3569 14.5492C39.4987 14.5492 39.6393 14.5109 39.7655 14.4354L43.5001 12.2034L47.2332 14.4354C47.5064 14.5997 47.8508 14.5847 48.1095 14.3972C48.369 14.2091 48.4902 13.8859 48.4196 13.5741L47.4546 9.3233L50.7271 6.45385C50.9678 6.24327 51.0597 5.9107 50.9609 5.60639Z" fill="#FFC107"/>
<path id="Vector_3" d="M32.9609 5.60639C32.8627 5.30266 32.5933 5.08693 32.2746 5.05821L27.9452 4.66509L26.2332 0.658071C26.107 0.364408 25.8195 0.174316 25.5001 0.174316C25.1807 0.174316 24.8932 0.364408 24.7669 0.658757L23.055 4.66509L18.7249 5.05821C18.4067 5.08762 18.138 5.30266 18.0393 5.60639C17.9405 5.91013 18.0317 6.24327 18.2724 6.45328L21.5449 9.3233L20.5799 13.5741C20.5093 13.8866 20.6306 14.2097 20.8899 14.3972C21.0293 14.4979 21.1924 14.5492 21.3569 14.5492C21.4987 14.5492 21.6393 14.5109 21.7655 14.4354L25.5001 12.2034L29.2332 14.4354C29.5064 14.5997 29.8508 14.5847 30.1095 14.3972C30.369 14.2091 30.4902 13.8859 30.4196 13.5741L29.4546 9.3233L32.7271 6.45385C32.9678 6.24327 33.0597 5.9107 32.9609 5.60639Z" fill="#FFC107"/>
<path id="Vector_4" d="M14.9609 5.60639C14.8627 5.30266 14.5933 5.08693 14.2746 5.05821L9.94517 4.66509L8.2332 0.658071C8.10697 0.364408 7.81949 0.174316 7.50008 0.174316C7.18066 0.174316 6.89318 0.364408 6.76695 0.658757L5.05498 4.66509L0.724885 5.05821C0.406731 5.08762 0.138017 5.30266 0.0392523 5.60639C-0.0595127 5.91013 0.031699 6.24327 0.272374 6.45328L3.5449 9.3233L2.57991 13.5741C2.50929 13.8866 2.6306 14.2097 2.88993 14.3972C3.02933 14.4979 3.19241 14.5492 3.35686 14.5492C3.49866 14.5492 3.63931 14.5109 3.76554 14.4354L7.50008 12.2034L11.2332 14.4354C11.5064 14.5997 11.8508 14.5847 12.1095 14.3972C12.369 14.2091 12.4902 13.8859 12.4196 13.5741L11.4546 9.3233L14.7271 6.45385C14.9678 6.24327 15.0597 5.9107 14.9609 5.60639Z" fill="#FFC107"/>
<g id="Group">
<path id="Vector_5" d="M86.9821 5.52433C86.9273 5.35645 86.7624 5.25116 86.488 5.20848L81.8927 4.54033L79.8332 0.375259C79.705 0.125044 79.5556 0 79.3847 0C79.2078 0 79.0582 0.125044 78.9362 0.375259L76.8765 4.54033L72.2812 5.20848C72.0066 5.25119 71.8418 5.35645 71.7869 5.52433C71.7322 5.69221 71.8023 5.87375 71.9975 6.06904L75.3296 9.30953L74.5423 13.8864C74.5119 14.088 74.5301 14.2446 74.5973 14.3578C74.6644 14.4708 74.7682 14.5272 74.9085 14.5272C75.0123 14.5272 75.1344 14.4906 75.2747 14.4171L79.3849 12.2567L83.495 14.4171C83.6353 14.4904 83.7575 14.5272 83.8613 14.5272C84.0017 14.5272 84.1056 14.4708 84.1725 14.3578C84.2395 14.2446 84.2578 14.088 84.2273 13.8864L83.4401 9.30953L86.7628 6.06904C86.9643 5.87375 87.0374 5.69221 86.9821 5.52433ZM82.6251 8.46731L82.1766 8.89762L82.2866 9.50178L82.8357 12.7515L79.9249 11.2137L79.3847 10.9297V2.11452L80.8402 5.06212L81.1146 5.61128L81.719 5.70285L84.9779 6.17879L82.6251 8.46731Z" fill="#FFC107"/>
</g>
</g>
</g>
</g>
</g>
</g>
<defs>
<clipPath id="clip0_0_1">
<rect width="414" height="896" fill="white" transform="translate(-38 -571)"/>
</clipPath>
</defs>
</svg>
